<svg width="32" height="32" viewBox="0 0 32 32" fill="none" xmlns="http://www.w3.org/2000/svg">
<g id="Group">
<path id="Vector" d="M15.7166 2.61963C22.9504 2.61963 28.8141 8.48338 28.8141 15.7171C28.8141 22.9509 22.9504 28.8146 15.7166 28.8146C8.48289 28.8146 2.61914 22.9509 2.61914 15.7171C2.61914 8.48338 8.48289 2.61963 15.7166 2.61963ZM15.7166 5.23913C12.9377 5.23913 10.2726 6.34306 8.30757 8.30806C6.34257 10.2731 5.23864 12.9382 5.23864 15.7171C5.23864 18.4961 6.34257 21.1612 8.30757 23.1262C10.2726 25.0912 12.9377 26.1951 15.7166 26.1951C18.4956 26.1951 21.1607 25.0912 23.1257 23.1262C25.0907 21.1612 26.1946 18.4961 26.1946 15.7171C26.1946 12.9382 25.0907 10.2731 23.1257 8.30806C21.1607 6.34306 18.4956 5.23913 15.7166 5.23913ZM15.7166 20.9561C16.064 20.9561 16.3971 21.0941 16.6428 21.3397C16.8884 21.5854 17.0264 21.9185 17.0264 22.2659C17.0264 22.6132 16.8884 22.9464 16.6428 23.192C16.3971 23.4376 16.064 23.5756 15.7166 23.5756C15.3693 23.5756 15.0361 23.4376 14.7905 23.192C14.5449 22.9464 14.4069 22.6132 14.4069 22.2659C14.4069 21.9185 14.5449 21.5854 14.7905 21.3397C15.0361 21.0941 15.3693 20.9561 15.7166 20.9561ZM15.7166 8.5135C16.8198 8.51353 17.8885 8.89772 18.7392 9.60007C19.59 10.3024 20.1695 11.2791 20.3784 12.3623C20.5873 13.4455 20.4125 14.5677 19.884 15.536C19.3554 16.5043 18.5062 17.2584 17.4822 17.6686C17.3313 17.7259 17.1949 17.8158 17.0827 17.9319C17.0251 17.9974 17.0159 18.0812 17.0172 18.1677L17.0264 18.3366C17.026 18.6704 16.8982 18.9915 16.669 19.2343C16.4399 19.477 16.1266 19.6231 15.7934 19.6427C15.4601 19.6622 15.132 19.5538 14.876 19.3395C14.62 19.1253 14.4555 18.8213 14.416 18.4899L14.4069 18.3366V18.0092C14.4069 16.499 15.6249 15.5927 16.5077 15.2378C16.867 15.0943 17.1804 14.8557 17.4143 14.5475C17.6482 14.2393 17.7937 13.8733 17.8353 13.4887C17.8768 13.104 17.8128 12.7153 17.6501 12.3643C17.4874 12.0134 17.2322 11.7133 16.9118 11.4964C16.5915 11.2795 16.2181 11.154 15.8318 11.1333C15.4454 11.1127 15.0608 11.1976 14.7191 11.3791C14.3774 11.5605 14.0916 11.8316 13.8924 12.1632C13.6932 12.4948 13.588 12.8745 13.5883 13.2613C13.5883 13.6087 13.4503 13.9418 13.2047 14.1875C12.959 14.4331 12.6259 14.5711 12.2785 14.5711C11.9312 14.5711 11.598 14.4331 11.3524 14.1875C11.1068 13.9418 10.9688 13.6087 10.9688 13.2613C10.9688 12.0021 11.469 10.7945 12.3594 9.90411C13.2498 9.01372 14.4574 8.5135 15.7166 8.5135Z" fill="#7B5399"/>
</g>
</svg>
