<svg width="34" height="34" viewBox="0 0 34 34" fill="none" xmlns="http://www.w3.org/2000/svg">
<g id="Group">
<path id="Vector" fill-rule="evenodd" clip-rule="evenodd" d="M14.5864 2.77832C12.7034 2.77848 10.8479 3.22892 9.17445 4.09206C7.50103 4.95521 6.05829 6.20602 4.96659 7.74014C3.87489 9.27427 3.16589 11.0472 2.89875 12.9111C2.6316 14.775 2.81406 16.6757 3.4309 18.4547C4.04774 20.2337 5.08107 21.8394 6.44468 23.1378C7.80829 24.4363 9.46264 25.3898 11.2697 25.9188C13.0768 26.4478 14.9841 26.5371 16.8327 26.179C18.6813 25.821 20.4174 25.0261 21.8962 23.8606L26.9695 28.9339C27.2316 29.1869 27.5825 29.327 27.9467 29.3238C28.3109 29.3206 28.6594 29.1745 28.9169 28.917C29.1745 28.6594 29.3206 28.311 29.3238 27.9467C29.3269 27.5825 29.1869 27.2316 28.9339 26.9696L23.8606 21.8963C25.2331 20.1551 26.0876 18.0627 26.3265 15.8585C26.5653 13.6543 26.1788 11.4274 25.2112 9.43264C24.2435 7.43788 22.7338 5.75584 20.8548 4.57902C18.9758 3.40221 16.8034 2.77817 14.5864 2.77832ZM5.55666 14.5864C5.55666 12.1916 6.508 9.89482 8.2014 8.20143C9.8948 6.50803 12.1915 5.55669 14.5864 5.55669C16.9812 5.55669 19.2779 6.50803 20.9713 8.20143C22.6647 9.89482 23.6161 12.1916 23.6161 14.5864C23.6161 16.9812 22.6647 19.278 20.9713 20.9713C19.2779 22.6647 16.9812 23.6161 14.5864 23.6161C12.1915 23.6161 9.8948 22.6647 8.2014 20.9713C6.508 19.278 5.55666 16.9812 5.55666 14.5864Z" fill="#7B5399"/>
</g>
</svg>
